<svg width="20" height="20" viewBox="0 0 20 20" fill="none" xmlns="http://www.w3.org/2000/svg">
<g clip-path="url(#clip0_59_881)">
<path d="M10.0209 19.1548C15.0416 19.1548 19.1116 15.0847 19.1116 10.0639C19.1116 5.04315 15.0416 0.973007 10.0209 0.973007C5.00023 0.973007 0.930176 5.04315 0.930176 10.0639C0.930176 15.0847 5.00023 19.1548 10.0209 19.1548Z" fill="url(#paint0_radial_59_881)"/>
<path d="M10.0209 19.1548C15.0416 19.1548 19.1116 15.0847 19.1116 10.0639C19.1116 5.04315 15.0416 0.973007 10.0209 0.973007C5.00023 0.973007 0.930176 5.04315 0.930176 10.0639C0.930176 15.0847 5.00023 19.1548 10.0209 19.1548Z" fill="url(#paint1_linear_59_881)" fill-opacity="0.8"/>
<mask id="mask0_59_881" style="mask-type:luminance" maskUnits="userSpaceOnUse" x="0" y="0" width="20" height="20">
<path d="M10.0209 19.1544C15.0416 19.1544 19.1116 15.0842 19.1116 10.0635C19.1116 5.04269 15.0416 0.972549 10.0209 0.972549C5.00023 0.972549 0.930176 5.04269 0.930176 10.0635C0.930176 15.0842 5.00023 19.1544 10.0209 19.1544Z" fill="white"/>
</mask>
<g mask="url(#mask0_59_881)">
<path d="M10.0209 19.1544C15.0416 19.1544 19.1116 15.0842 19.1116 10.0635C19.1116 5.04269 15.0416 0.972549 10.0209 0.972549C5.00023 0.972549 0.930176 5.04269 0.930176 10.0635C0.930176 15.0842 5.00023 19.1544 10.0209 19.1544Z" fill="url(#paint2_radial_59_881)"/>
<path d="M10.0209 19.1544C15.0416 19.1544 19.1116 15.0842 19.1116 10.0635C19.1116 5.04269 15.0416 0.972549 10.0209 0.972549C5.00023 0.972549 0.930176 5.04269 0.930176 10.0635C0.930176 15.0842 5.00023 19.1544 10.0209 19.1544Z" fill="url(#paint3_radial_59_881)" fill-opacity="0.2"/>
<path d="M10.0209 19.1544C15.0416 19.1544 19.1116 15.0842 19.1116 10.0635C19.1116 5.04269 15.0416 0.972549 10.0209 0.972549C5.00023 0.972549 0.930176 5.04269 0.930176 10.0635C0.930176 15.0842 5.00023 19.1544 10.0209 19.1544Z" fill="url(#paint4_radial_59_881)"/>
<path d="M10.0209 19.1544C15.0416 19.1544 19.1116 15.0842 19.1116 10.0635C19.1116 5.04269 15.0416 0.972549 10.0209 0.972549C5.00023 0.972549 0.930176 5.04269 0.930176 10.0635C0.930176 15.0842 5.00023 19.1544 10.0209 19.1544Z" fill="url(#paint5_radial_59_881)"/>
<g filter="url(#filter0_f_59_881)">
<path d="M16.7915 4.71382C16.7915 6.68545 11.985 13.198 8.39722 13.7845C4.80941 14.371 -0.206055 9.94937 -0.206055 7.97777C-0.206055 6.00615 3.25453 1.22037 7.83471 0.0728896C12.4149 -1.07459 16.7915 2.7422 16.7915 4.71382Z" fill="url(#paint6_radial_59_881)"/>
</g>
<g filter="url(#filter1_f_59_881)">
<path d="M12.5429 18.1808C15.1723 17.4888 18.4271 14.4246 18.7517 12.9817C18.7517 12.9817 16.1738 14.2887 14.2842 15.843C12.3947 17.3973 3.53629 15.1886 2.61612 16.4711C1.69594 17.7535 9.2562 19.0458 12.5429 18.1808Z" fill="url(#paint7_linear_59_881)" fill-opacity="0.8"/>
</g>
<path d="M17.568 0.0770544L5.58252 18.2005L22.1696 29.1704L34.1551 11.047L17.568 0.0770544Z" fill="url(#paint8_radial_59_881)"/>
</g>
<g filter="url(#filter2_f_59_881)">
<path d="M6.01054 1.90621C1.50839 4.12856 -0.344944 9.58239 1.87099 14.0877C4.08693 18.593 9.53301 20.4437 14.0352 18.2214C18.5373 15.999 20.3906 10.5452 18.1747 6.03988C15.9588 1.53457 10.5127 -0.316132 6.01054 1.90621Z" stroke="url(#paint9_linear_59_881)" stroke-width="0.139325"/>
</g>
<g filter="url(#filter3_f_59_881)">
<path d="M10.7888 18.3316C9.29659 18.0701 7.11773 17.1708 6.06132 16.5745C5.84724 16.4535 5.5513 16.6226 5.65449 16.8458C6.1323 17.879 7.76017 18.2292 8.79115 18.3767C9.4585 18.4723 10.211 18.5504 10.8127 18.5537C11.1004 18.5554 11.0722 18.3813 10.7888 18.3316Z" fill="#EADAFF" fill-opacity="0.8"/>
</g>
<g filter="url(#filter4_f_59_881)">
<path d="M14.2135 4.88327C14.2135 6.70028 11.0802 8.70198 9.24759 9.08388C7.41495 9.46581 2.30127 9.90218 2.30127 8.08515C2.30127 6.26813 4.48862 3.26764 7.41495 2.35702C10.3413 1.44639 14.2135 3.06625 14.2135 4.88327Z" fill="url(#paint10_radial_59_881)"/>
<path d="M14.2135 4.88327C14.2135 6.70028 11.0802 8.70198 9.24759 9.08388C7.41495 9.46581 2.30127 9.90218 2.30127 8.08515C2.30127 6.26813 4.48862 3.26764 7.41495 2.35702C10.3413 1.44639 14.2135 3.06625 14.2135 4.88327Z" fill="url(#paint11_radial_59_881)" fill-opacity="0.8"/>
</g>
</g>
<defs>
<filter id="filter0_f_59_881" x="-4.24645" y="-4.17845" width="25.0784" height="22.0564" filterUnits="userSpaceOnUse" color-interpolation-filters="sRGB">
<feFlood flood-opacity="0" result="BackgroundImageFix"/>
<feBlend mode="normal" in="SourceGraphic" in2="BackgroundImageFix" result="shape"/>
<feGaussianBlur stdDeviation="2.0202" result="effect1_foregroundBlur_59_881"/>
</filter>
<filter id="filter1_f_59_881" x="1.49413" y="11.9368" width="18.3023" height="7.56988" filterUnits="userSpaceOnUse" color-interpolation-filters="sRGB">
<feFlood flood-opacity="0" result="BackgroundImageFix"/>
<feBlend mode="normal" in="SourceGraphic" in2="BackgroundImageFix" result="shape"/>
<feGaussianBlur stdDeviation="0.522466" result="effect1_foregroundBlur_59_881"/>
</filter>
<filter id="filter2_f_59_881" x="0.586585" y="0.617347" width="18.8722" height="18.8929" filterUnits="userSpaceOnUse" color-interpolation-filters="sRGB">
<feFlood flood-opacity="0" result="BackgroundImageFix"/>
<feBlend mode="normal" in="SourceGraphic" in2="BackgroundImageFix" result="shape"/>
<feGaussianBlur stdDeviation="0.139325" result="effect1_foregroundBlur_59_881"/>
</filter>
<filter id="filter3_f_59_881" x="4.42118" y="15.3221" width="7.80608" height="4.44381" filterUnits="userSpaceOnUse" color-interpolation-filters="sRGB">
<feFlood flood-opacity="0" result="BackgroundImageFix"/>
<feBlend mode="normal" in="SourceGraphic" in2="BackgroundImageFix" result="shape"/>
<feGaussianBlur stdDeviation="0.606061" result="effect1_foregroundBlur_59_881"/>
</filter>
<filter id="filter4_f_59_881" x="0.420397" y="0.214739" width="15.6739" height="11.0894" filterUnits="userSpaceOnUse" color-interpolation-filters="sRGB">
<feFlood flood-opacity="0" result="BackgroundImageFix"/>
<feBlend mode="normal" in="SourceGraphic" in2="BackgroundImageFix" result="shape"/>
<feGaussianBlur stdDeviation="0.940436" result="effect1_foregroundBlur_59_881"/>
</filter>
<radialGradient id="paint0_radial_59_881" cx="0" cy="0" r="1" gradientUnits="userSpaceOnUse" gradientTransform="translate(6.43352 4.70663) rotate(51.0246) scale(25.5839 25.6198)">
<stop offset="0.420678" stop-color="#DDE2FF"/>
<stop offset="1" stop-color="#7275C5"/>
</radialGradient>
<linearGradient id="paint1_linear_59_881" x1="7.40879" y1="0.624082" x2="11.7404" y2="9.62055" gradientUnits="userSpaceOnUse">
<stop stop-color="white"/>
<stop offset="1" stop-color="white" stop-opacity="0"/>
</linearGradient>
<radialGradient id="paint2_radial_59_881" cx="0" cy="0" r="1" gradientUnits="userSpaceOnUse" gradientTransform="translate(7.51329 12.0338) rotate(-99.35) scale(17.1513 18.1331)">
<stop offset="0.619792" stop-color="white" stop-opacity="0"/>
<stop offset="0.796875" stop-color="white" stop-opacity="0"/>
<stop offset="1" stop-color="white"/>
</radialGradient>
<radialGradient id="paint3_radial_59_881" cx="0" cy="0" r="1" gradientUnits="userSpaceOnUse" gradientTransform="translate(2.00998 13.3947) rotate(33.9774) scale(11.5507 7.21881)">
<stop stop-color="#9266FF"/>
<stop offset="1" stop-color="#9266FF" stop-opacity="0"/>
</radialGradient>
<radialGradient id="paint4_radial_59_881" cx="0" cy="0" r="1" gradientUnits="userSpaceOnUse" gradientTransform="translate(13.8874 14.267) rotate(-102.367) scale(12.36 15.0127)">
<stop offset="0.751346" stop-color="white" stop-opacity="0"/>
<stop offset="1" stop-color="white"/>
</radialGradient>
<radialGradient id="paint5_radial_59_881" cx="0" cy="0" r="1" gradientUnits="userSpaceOnUse" gradientTransform="translate(-1.01865 17.1835) rotate(-42.7736) scale(15.1094 20.8751)">
<stop stop-color="#F4448E"/>
<stop offset="1" stop-color="#F4448E" stop-opacity="0"/>
</radialGradient>
<radialGradient id="paint6_radial_59_881" cx="0" cy="0" r="1" gradientUnits="userSpaceOnUse" gradientTransform="translate(8.29273 5.58451) rotate(63.2463) scale(8.43301 11.2937)">
<stop offset="0.146186" stop-color="#FDDAE8"/>
<stop offset="0.481375" stop-color="white" stop-opacity="0.645"/>
<stop offset="0.697917" stop-color="#F889B8" stop-opacity="0.47"/>
<stop offset="0.91377" stop-color="#DDE2FF"/>
</radialGradient>
<linearGradient id="paint7_linear_59_881" x1="16.2039" y1="17.9206" x2="14.1596" y2="13.311" gradientUnits="userSpaceOnUse">
<stop stop-color="#9266FF"/>
<stop offset="1" stop-color="#F4448E" stop-opacity="0"/>
</linearGradient>
<radialGradient id="paint8_radial_59_881" cx="0" cy="0" r="1" gradientUnits="userSpaceOnUse" gradientTransform="translate(19.8688 14.6238) rotate(33.4788) scale(9.94327 10.9386)">
<stop stop-color="#FDDAE8"/>
<stop offset="1" stop-color="#FDDAE8" stop-opacity="0"/>
</radialGradient>
<linearGradient id="paint9_linear_59_881" x1="0.296747" y1="4.19957" x2="18.2006" y2="17.458" gradientUnits="userSpaceOnUse">
<stop stop-color="white"/>
<stop offset="1" stop-color="white" stop-opacity="0"/>
</linearGradient>
<radialGradient id="paint10_radial_59_881" cx="0" cy="0" r="1" gradientUnits="userSpaceOnUse" gradientTransform="translate(2.96307 3.48435) rotate(33.686) scale(10.7581 17.5311)">
<stop stop-color="#FFF9EF"/>
<stop offset="1" stop-color="#FFF9EF" stop-opacity="0"/>
</radialGradient>
<radialGradient id="paint11_radial_59_881" cx="0" cy="0" r="1" gradientUnits="userSpaceOnUse" gradientTransform="translate(0.176552 8.78822) rotate(-24.4127) scale(11.8197 11.3889)">
<stop stop-color="#ADB3E4"/>
<stop offset="1" stop-color="#DDE2FF" stop-opacity="0"/>
</radialGradient>
<clipPath id="clip0_59_881">
<rect width="20" height="20" fill="white"/>
</clipPath>
</defs>
</svg>
