<svg width="74" height="31" viewBox="0 0 74 31" fill="none" xmlns="http://www.w3.org/2000/svg">
<path d="M30.6326 29.9944C25.7519 29.9944 22.4456 26.7196 22.4456 21.65C22.4456 16.6749 25.7519 13.3056 30.7586 13.3056C34.4742 13.3056 37.0248 15.1319 37.0248 17.7455C37.0248 21.0202 33.1517 22.3112 27.2003 22.4372C27.8616 24.8933 29.4675 27.003 32.207 27.003C34.1908 27.003 35.104 26.0583 35.7652 25.4286C36.1746 25.0507 36.458 24.7988 36.7414 24.7988C37.0563 24.7988 37.2767 24.9877 37.2767 25.586C37.2767 27.5698 34.8521 29.9944 30.6326 29.9944ZM26.8225 19.6033C26.8225 20.1071 26.854 20.6109 26.9484 21.1462C31.4513 21.0202 33.0257 19.7607 33.0257 17.714C33.0257 16.0136 31.9866 14.7226 30.3492 14.7226C28.145 14.7226 26.8225 16.9582 26.8225 19.6033Z" fill="#162694"/>
<path d="M42.3557 11.9072C40.8443 11.9072 39.8366 10.9626 39.8366 9.57708C39.8366 8.1916 40.8443 7.24695 42.3557 7.24695C43.8672 7.24695 44.8748 8.1916 44.8748 9.57708C44.8748 10.9626 43.8672 11.9072 42.3557 11.9072ZM39.9941 29.9815C39.4903 29.9815 39.1439 29.6666 39.1439 29.2257C39.1439 28.7534 39.4273 28.533 39.7107 28.3441C40.0256 28.0922 40.309 27.8717 40.309 27.3679V16.169C40.309 15.6022 39.9941 15.3503 39.6792 15.1299C39.3958 14.9095 39.1124 14.689 39.1124 14.2167C39.1124 13.7444 39.4588 13.398 39.9626 13.398H43.5523C44.2765 13.398 44.7174 13.8389 44.7174 14.5946V27.3679C44.7174 27.8717 44.9693 28.0922 45.3156 28.3441C45.599 28.533 45.8824 28.7534 45.8824 29.2257C45.8824 29.6666 45.5361 29.9815 45.0322 29.9815H39.9941Z" fill="#162694"/>
<path d="M54.3374 29.9944C50.3068 29.9944 47.6618 26.7196 47.6618 21.8074C47.6618 16.6434 50.5273 13.3056 54.8412 13.3056C56.7935 13.3056 58.2735 13.9984 59.2811 15.1319V10.4087C59.2811 9.84191 58.9347 9.59 58.6198 9.36959C58.3364 9.14917 58.053 8.92875 58.053 8.45643C58.053 7.9841 58.3994 7.63773 58.9032 7.63773H62.5244C63.2172 7.63773 63.6895 8.07857 63.6895 8.83428V27.0345C63.6895 27.6013 64.0044 27.8532 64.3193 28.1051C64.6342 28.294 64.8546 28.4829 64.8546 28.8923C64.8546 29.585 63.8784 29.9944 62.6504 29.9944C60.7926 29.9944 59.596 29.0812 59.3441 27.6642C58.0845 29.2072 56.3212 29.9944 54.3374 29.9944ZM52.0387 19.8237C52.0387 23.0985 53.5817 27.7587 56.4786 27.7587C57.6752 27.7587 58.6828 27.0345 59.2811 25.7435V19.0994C58.5883 16.7378 57.2658 14.7226 55.408 14.7226C53.2983 14.7226 52.0387 16.9583 52.0387 19.8237Z" fill="#162694"/>
<path d="M69.9698 11.9201C68.4583 11.9201 67.4507 10.9755 67.4507 9.59C67.4507 8.20452 68.4583 7.25987 69.9698 7.25987C71.4812 7.25987 72.4889 8.20452 72.4889 9.59C72.4889 10.9755 71.4812 11.9201 69.9698 11.9201ZM67.6081 29.9944C67.1043 29.9944 66.7579 29.6795 66.7579 29.2387C66.7579 28.7663 67.0413 28.5459 67.3247 28.357C67.6396 28.1051 67.923 27.8847 67.923 27.3809V16.169C67.923 15.6022 67.6081 15.3503 67.2932 15.1299C67.0098 14.9095 66.7264 14.689 66.7264 14.2167C66.7264 13.7444 67.0728 13.398 67.5766 13.398H71.1663C71.8906 13.398 72.3314 13.8389 72.3314 14.5946V27.3809C72.3314 27.8847 72.5833 28.1051 72.9297 28.357C73.2131 28.5459 73.4965 28.7663 73.4965 29.2387C73.4965 29.6795 73.1501 29.9944 72.6463 29.9944H67.6081Z" fill="#162694"/>
<path d="M11.2552 14.2153C11.2552 13.7706 11.6158 13.4101 12.0605 13.4101H12.5052C16.6473 13.4101 20.0051 16.7605 20.0051 20.8933V29.2083C20.0051 29.653 19.6446 30.0135 19.1999 30.0135H18.7551C14.6131 30.0135 11.2552 26.6632 11.2552 22.5303V14.2153Z" fill="#162694"/>
<path d="M0.0057373 4.43493C0.0057373 2.02408 1.96446 0.0697021 4.38067 0.0697021C6.79688 0.0697021 8.75561 2.02408 8.75561 4.43493V22.5194C8.75561 26.6523 5.39779 30.0027 1.25572 30.0027H0.810966C0.366251 30.0027 0.0057373 29.6422 0.0057373 29.1974V4.43493Z" fill="#162694"/>
<ellipse cx="14.6944" cy="7.4892" rx="3.44081" ry="3.43317" fill="#F4448E"/>
</svg>
