<svg width="24" height="37" viewBox="0 0 24 37" fill="none" xmlns="http://www.w3.org/2000/svg">
<path d="M13.4812 17.0298C13.4812 16.4969 13.9132 16.0649 14.446 16.0649H14.979C19.942 16.0649 23.9655 20.0795 23.9655 25.0315V34.9945C23.9655 35.5275 23.5335 35.9594 23.0005 35.9594H22.4677C17.5046 35.9594 13.4812 31.945 13.4812 26.9929V17.0298Z" fill="#162694"/>
<path d="M0.00195312 5.31079C0.00195312 2.42208 2.34892 0.0803223 5.24404 0.0803223C8.13917 0.0803223 10.4861 2.42208 10.4861 5.31079V26.9799C10.4861 31.9319 6.46276 35.9464 1.49969 35.9464H0.966786C0.433924 35.9464 0.00195312 35.5145 0.00195312 34.9816V5.31079Z" fill="#162694"/>
<path d="M17.604 13.0851C19.881 13.0851 21.7268 11.2434 21.7268 8.97146C21.7268 6.69954 19.881 4.85779 17.604 4.85779C15.327 4.85779 13.4812 6.69954 13.4812 8.97146C13.4812 11.2434 15.327 13.0851 17.604 13.0851Z" fill="#F4448E"/>
</svg>
